<svg width="3392" height="912" viewBox="0 0 3392 912" fill="none" xmlns="http://www.w3.org/2000/svg">
<g clip-path="url(#clip0_149_26)">
<path d="M279.105 140.889C387.226 140.889 463.917 167.305 512.949 208.817C548.151 239.007 567.01 283.035 567.01 337.126C567.01 391.217 545.637 442.792 505.406 478.014C442.544 534.621 389.741 543.427 275.333 543.427C160.925 543.427 230.073 543.427 201.156 539.653V732.116C201.156 813.882 214.986 827.719 302.992 832.751V852.878H0V832.751C84.2342 826.461 90.5204 813.882 90.5204 722.053V260.392C90.5204 181.142 79.2053 167.305 0 161.016V140.889H279.105ZM199.899 498.141C225.044 500.657 243.902 501.915 265.275 501.915C383.454 501.915 448.83 440.276 448.83 343.416C448.83 246.555 384.712 181.142 237.616 181.142C90.5204 181.142 199.899 191.206 199.899 220.138V498.141Z" fill="#5F0E2E"/>
<path d="M1122.7 855.393H541.865V835.267C624.842 830.235 636.157 816.398 636.157 733.374V261.65C636.157 182.4 623.585 166.047 541.865 161.016V140.889H1112.65L1116.42 295.614H1090.02C1073.67 198.754 1048.53 182.4 924.062 182.4H783.253C753.079 182.4 745.536 186.174 745.536 221.396V459.145H907.718C1000.75 459.145 1017.1 440.276 1029.67 355.995H1054.81V608.839H1029.67C1017.1 518.268 1000.75 504.431 907.718 504.431H745.536V766.08C745.536 811.366 774.452 816.398 854.915 816.398H893.889C1048.53 816.398 1093.79 788.723 1142.82 674.251H1172.99L1123.96 856.651L1122.7 855.393Z" fill="#5F0E2E"/>
<path d="M1807.89 828.977C1782.75 822.687 1765.15 811.366 1743.77 783.691L1527.53 510.72C1597.94 500.657 1648.22 478.014 1679.66 445.308C1684.68 439.018 1690.97 433.987 1694.74 427.697C1712.34 401.28 1721.14 371.09 1721.14 335.868V329.578C1716.12 322.031 1712.34 313.225 1707.31 301.904C1697.26 276.745 1690.97 252.844 1689.71 230.202C1683.43 221.396 1675.88 212.591 1667.08 206.301C1665.83 206.301 1664.57 203.785 1663.31 202.527C1616.79 166.047 1541.36 142.146 1442.04 142.146H1149.11V162.273C1232.08 168.563 1240.88 181.142 1240.88 261.65V722.053C1240.88 816.398 1229.57 828.977 1149.11 835.267V855.393H1447.07V835.267C1364.09 830.235 1351.52 816.398 1351.52 734.632V525.815L1411.87 523.3L1668.34 855.393H1843.1V835.267C1829.27 835.267 1816.69 832.751 1806.64 830.235L1807.89 828.977ZM1354.03 485.562V226.428C1354.03 188.69 1372.89 181.142 1409.35 181.142C1542.62 181.142 1606.74 228.944 1606.74 325.804C1606.74 422.665 1584.11 427.697 1545.13 449.082C1496.1 475.498 1458.38 483.046 1354.03 485.562Z" fill="#5F0E2E"/>
<path d="M1956.25 134.599C1991.45 152.21 2104.6 217.622 2219.01 447.823C2291.93 450.339 2359.82 457.887 2421.42 423.923C2421.42 423.923 2447.82 408.828 2460.4 394.99C2549.66 411.343 2587.38 361.026 2514.46 425.181C2357.3 564.811 2017.85 345.931 1878.3 579.906C1835.55 651.608 1784.01 876.778 1992.71 909.484C1825.5 889.357 1751.32 778.659 1738.75 705.699C1713.6 559.779 1833.04 412.601 2079.46 444.05C2085.74 444.05 2093.28 446.565 2093.28 446.565C2068.14 362.284 1914.76 130.825 1822.98 115.73C1861.95 113.214 1892.13 115.73 1905.96 118.245C1937.39 122.019 1951.22 130.825 1957.5 134.599H1956.25Z" fill="#5F0E2E"/>
<path d="M2567.26 143.404C2566 159.757 2560.97 174.852 2553.43 188.689C2533.31 226.427 2494.34 252.844 2464.17 266.681C2249.18 364.799 2066.88 81.765 1836.81 91.8284C1732.46 95.6022 1688.46 154.725 1693.48 230.201C1694.74 252.844 1701.03 276.744 1711.09 301.903C1716.11 313.224 1719.89 322.03 1724.92 329.577C1740 355.994 1753.83 359.768 1753.83 359.768C1751.32 364.799 1719.89 402.537 1698.51 427.696C1690.97 436.502 1685.94 442.791 1683.43 445.307C1616.79 372.347 1625.59 276.744 1669.6 200.01C1699.77 147.177 1747.55 104.408 1799.09 84.2808C1913.5 40.2532 2002.76 37.7374 2127.23 99.376C2249.18 161.015 2488.05 267.939 2553.43 183.657C2553.43 183.657 2553.43 182.399 2554.69 181.141C2562.23 171.078 2566 157.241 2568.52 142.146C2568.52 139.63 2568.52 137.114 2568.52 137.114C2568.52 129.566 2568.52 123.277 2566 116.987C2550.91 61.6381 2460.39 76.7332 2433.99 94.3443C2401.3 115.729 2396.27 132.082 2396.27 132.082L2330.9 45.285C2347.24 -8.80607 2488.05 -27.675 2544.63 56.6063C2558.46 77.9912 2566 98.1181 2569.77 116.987C2569.77 125.793 2571.03 133.34 2569.77 142.146L2567.26 143.404Z" fill="#5F0E2E"/>
<path d="M2231.58 499.398C2343.47 734.631 2226.55 837.782 2115.91 888.099C2069.4 909.484 2025.39 915.773 1983.9 909.484H1987.68C2070.65 920.805 2255.47 861.682 2100.83 478.013C2115.91 475.497 2222.78 490.593 2232.84 499.398H2231.58Z" fill="#5F0E2E"/>
<path d="M2694.24 183.658C2706.81 172.337 2735.73 166.047 2780.99 163.531V143.404H2566C2564.74 159.757 2559.71 172.337 2552.17 183.658C2552.17 183.658 2552.17 184.916 2550.91 186.174C2550.91 186.174 2552.17 188.69 2553.43 189.948C2562.23 202.527 2566 227.686 2566 262.908V734.632C2566 776.144 2559.71 802.56 2548.4 815.139C2535.83 826.461 2508.17 834.008 2462.91 835.266V855.393H2782.24V835.266C2738.24 834.008 2709.32 826.461 2696.75 813.881C2684.18 801.302 2677.89 774.886 2677.89 734.632V262.908C2677.89 222.654 2684.18 196.237 2696.75 184.916L2694.24 183.658Z" fill="#5F0E2E"/>
<path d="M3392 325.804H3366.86C3355.54 266.682 3339.2 228.944 3317.82 212.591C3296.45 196.237 3257.48 187.432 3200.9 187.432H3138.04V734.632C3138.04 774.886 3144.33 801.302 3155.64 812.624C3166.96 823.945 3195.87 830.235 3241.13 832.75V852.877H2926.83V832.75C2972.09 830.235 2999.75 822.687 3011.06 810.108C3022.38 797.528 3027.4 768.596 3027.4 720.795V188.69H2963.29C2905.45 188.69 2866.48 197.495 2845.11 213.848C2823.73 230.202 2808.65 267.939 2798.59 325.804H2772.19L2779.73 143.404H3383.2L3390.74 325.804H3392Z" fill="#5F0E2E"/>
</g>
<defs>
<clipPath id="clip0_149_26">
<rect width="3392" height="912" fill="white"/>
</clipPath>
</defs>
</svg>
